<?xml version="1.0" ?><svg viewBox="0 0 54.35 58.89" xmlns="http://www.w3.org/2000/svg"><defs><style>.cls-1{fill:#4d4d4d;}</style></defs><title/><g data-name="Layer 2" id="Layer_2"><g id="icon"><path class="cls-1" d="M33.79,3.92c.18.95,1.63.55,1.45-.4s-.4-2-.63-3S32.94,0,33.16.94,33.6,2.92,33.79,3.92Z"/><path class="cls-1" d="M44.7,5.83a15,15,0,0,1,1.55-2.32.77.77,0,0,0,0-1.06.76.76,0,0,0-1.06,0,17.08,17.08,0,0,0-1.79,2.63C42.94,5.92,44.24,6.68,44.7,5.83Z"/><path class="cls-1" d="M50.17,14.06a8.83,8.83,0,0,1,2.29-.53c1-.08,1-1.58,0-1.5a10.3,10.3,0,0,0-2.68.58C48.88,12.95,49.26,14.4,50.17,14.06Z"/><path class="cls-1" d="M47.64,23.79a25.51,25.51,0,0,1,2.18,1.35c.8.55,1.55-.75.76-1.3a25.56,25.56,0,0,0-2.18-1.35C47.55,22,46.79,23.33,47.64,23.79Z"/><path class="cls-1" d="M23.63,8.12q1,.65,2,1.27a.75.75,0,0,0,.76-1.3q-1-.62-2-1.27C23.57,6.3,22.82,7.6,23.63,8.12Z"/><path class="cls-1" d="M46.36,29.57a6.13,6.13,0,0,0-1.05-5.65A11.45,11.45,0,0,0,43.1,6.68c-6-3.84-14.49-.57-16.76,5.93a14.86,14.86,0,0,0-3.64,0C15.94,13.57,9.85,20.18,11.35,27,5.47,24.22-2.09,30.61.54,37.35c1.39,3.55,5.56,5.41,9,6.08,5.63,1.07,12,1,17.71.94,4.47-.08,8.94,0,13.41-.19,4.08-.16,8.68.23,11.64-3.13C57.06,35.71,52.81,28.42,46.36,29.57ZM42.34,8c4.9,3.11,5.77,10.62,1.9,14.89a5.67,5.67,0,0,0-6.94-.28c-.49-5.22-4.6-8.69-9.46-9.74C29.94,7.34,37.23,4.73,42.34,8Zm8.94,32c-2.58,2.8-6.47,2.53-10,2.66-4.68.17-9.36.14-14,.22-2.86,0-5.72-.16-8.58-.3-3.23-.16-6.73,0-9.88-.83-3.81-1-7.8-3.55-7-8.06.79-4.71,6.38-8.11,10.44-4.32a.75.75,0,0,0,1.18-.91C10,21.35,17.32,14.4,24,14c6.06-.35,12.05,3.47,11.83,10a.76.76,0,0,0,1.28.53c4.24-3.72,10.28,1.12,7.25,5.78a.76.76,0,0,0,.85,1.1C50.77,29.36,55.58,35.33,51.28,40Z"/><path class="cls-1" d="M16.64,20.43a13,13,0,0,0-1.42,4c-.17.94,1.27,1.35,1.45.4a11.74,11.74,0,0,1,1.27-3.6C18.4,20.34,17.1,19.58,16.64,20.43Z"/><path class="cls-1" d="M19.26,21.68a.75.75,0,0,0-1,.27,17.44,17.44,0,0,0-.83,2.36.75.75,0,0,0,1.45.4,14.8,14.8,0,0,1,.68-2A.78.78,0,0,0,19.26,21.68Z"/><path class="cls-1" d="M20.3,46.3a.63.63,0,0,0,0-.11l0-.11a.59.59,0,0,0-.67-.53.71.71,0,0,0-.58.2c-1.05,1-2.89,2.36-2.94,4a2.09,2.09,0,0,0,2.26,2.35C21.12,51.78,20.62,48.33,20.3,46.3Zm-1.42,3.88c-.16.26-.75.56-1.06.36s-.2-1,0-1.28a5.65,5.65,0,0,1,1.17-1.43c0,.18,0,.36,0,.54A3.6,3.6,0,0,1,18.87,50.18Z"/><path class="cls-1" d="M28.88,46.3a.64.64,0,0,0,0-.11l0-.11a.59.59,0,0,0-.67-.53.71.71,0,0,0-.58.2c-1.05,1-2.89,2.36-2.94,4a2.09,2.09,0,0,0,2.26,2.35C29.7,51.78,29.2,48.33,28.88,46.3Zm-1.42,3.88c-.16.26-.75.56-1.06.36s-.2-1,0-1.28a5.65,5.65,0,0,1,1.17-1.43c0,.18,0,.36,0,.54A3.6,3.6,0,0,1,27.45,50.18Z"/><path class="cls-1" d="M13.72,53l0-.11a.59.59,0,0,0-.67-.53.71.71,0,0,0-.58.2c-1.05,1-2.89,2.36-2.94,4a2.09,2.09,0,0,0,2.26,2.35c2.8-.28,2.29-3.72,2-5.75A.63.63,0,0,0,13.72,53Zm-1.41,4c-.16.26-.75.56-1.06.36s-.2-1,0-1.28a5.64,5.64,0,0,1,1.17-1.43c0,.18,0,.36,0,.54A3.6,3.6,0,0,1,12.32,57Z"/><path class="cls-1" d="M22.92,53l0-.11a.59.59,0,0,0-.67-.53.71.71,0,0,0-.58.2c-1.05,1-2.89,2.36-2.94,4A2.09,2.09,0,0,0,21,58.88c2.8-.28,2.29-3.72,2-5.75A.63.63,0,0,0,22.92,53Zm-1.41,4c-.16.26-.75.56-1.06.36s-.2-1,0-1.28a5.64,5.64,0,0,1,1.17-1.43c0,.18,0,.36,0,.54A3.6,3.6,0,0,1,21.52,57Z"/><path class="cls-1" d="M32.12,53l0-.12a.59.59,0,0,0-.67-.53.71.71,0,0,0-.58.2c-1.05,1-2.89,2.36-2.94,4a2.09,2.09,0,0,0,2.26,2.35c2.8-.28,2.29-3.72,2-5.75A.64.64,0,0,0,32.12,53Zm-1.41,4c-.16.26-.75.56-1.06.36s-.2-1,0-1.28a5.64,5.64,0,0,1,1.17-1.43c0,.18,0,.36,0,.54A3.6,3.6,0,0,1,30.72,57Z"/><path class="cls-1" d="M11.72,46.3a.63.63,0,0,0,0-.11l0-.11a.59.59,0,0,0-.67-.53.71.71,0,0,0-.58.2c-1.05,1-2.89,2.36-2.94,4a2.09,2.09,0,0,0,2.26,2.35C12.54,51.78,12,48.33,11.72,46.3ZM9.24,50.54c-.41-.27-.2-1,0-1.28a5.64,5.64,0,0,1,1.17-1.43c0,.18,0,.36,0,.54a3.6,3.6,0,0,1-.1,1.81C10.13,50.44,9.54,50.74,9.24,50.54Z"/><path class="cls-1" d="M46,46.19l0-.11a.59.59,0,0,0-.67-.53.71.71,0,0,0-.58.2c-1.05,1-2.89,2.36-2.94,4a2.09,2.09,0,0,0,2.26,2.35c2.8-.28,2.29-3.72,2-5.75A.63.63,0,0,0,46,46.19Zm-1.41,4c-.16.26-.75.56-1.06.36s-.2-1,0-1.28a5.65,5.65,0,0,1,1.17-1.43c0,.18,0,.36,0,.54A3.6,3.6,0,0,1,44.61,50.18Z"/><path class="cls-1" d="M41.32,53l0-.12a.59.59,0,0,0-.67-.53.71.71,0,0,0-.58.2c-1.05,1-2.89,2.36-2.94,4a2.09,2.09,0,0,0,2.26,2.35c2.8-.28,2.29-3.72,2-5.75A.63.63,0,0,0,41.32,53Zm-1.41,4c-.16.26-.75.56-1.06.36s-.2-1,0-1.28A5.64,5.64,0,0,1,40,54.65c0,.18,0,.36,0,.54A3.6,3.6,0,0,1,39.92,57Z"/><path class="cls-1" d="M37.45,46.3a.64.64,0,0,0,0-.11l0-.11a.59.59,0,0,0-.67-.53.71.71,0,0,0-.58.2c-1.05,1-2.89,2.36-2.94,4a2.09,2.09,0,0,0,2.26,2.35C38.28,51.78,37.77,48.33,37.45,46.3ZM36,50.18c-.16.26-.75.56-1.06.36s-.2-1,0-1.28a5.65,5.65,0,0,1,1.17-1.43c0,.18,0,.36,0,.54A3.6,3.6,0,0,1,36,50.18Z"/></g></g></svg>