<?xml version="1.0" ?><svg viewBox="0 0 58.45 46.99" xmlns="http://www.w3.org/2000/svg"><defs><style>.cls-1{fill:#4d4d4d;}</style></defs><title/><g data-name="Layer 2" id="Layer_2"><g id="icon"><path class="cls-1" d="M49.93,18.42a6.62,6.62,0,0,0-2.14-7.15,6,6,0,0,0-7.64-.37C39.51,3.15,31.4-1,24,.21c-7,1.16-13.44,8.3-11.76,15.44C5.92,12.59-2.25,19.51.58,26.74c1.66,4.24,6.87,6.16,11,6.71l1.68.2c-.85,1.88-1.77,3.72-2.67,5.57a.76.76,0,0,0,.65,1.13c.82,0,1.63,0,2.45,0-.95,1.8-1.86,3.61-2.68,5.46a.75.75,0,0,0,1.18.91c3.29-3.11,7-5.69,10.11-9a.76.76,0,0,0-.53-1.28l-2.4,0c.46-.78.93-1.55,1.38-2.33,1.75.06,3.5.09,5.24.1-.76,1.67-1.61,3.29-2.41,4.94a.76.76,0,0,0,.65,1.13c.82,0,1.63,0,2.44,0C25.7,42.19,24.78,44,24,45.86a.75.75,0,0,0,1.18.91c3.29-3.11,7-5.69,10.11-9a.76.76,0,0,0-.53-1.28c-.8,0-1.6,0-2.4,0,.45-.75.9-1.5,1.34-2.26v0l5.31,0c-.77,1.7-1.63,3.35-2.45,5a.76.76,0,0,0,.65,1.13c.82,0,1.63,0,2.44,0-.95,1.8-1.86,3.61-2.68,5.46a.75.75,0,0,0,1.18.91c3.29-3.11,7-5.69,10.11-9a.76.76,0,0,0-.53-1.28c-.8,0-1.6,0-2.4,0,.48-.8,1-1.61,1.43-2.42,0,0,0,0,0-.06,3-.06,6-.34,8.38-2.16C61.72,26.76,57.75,16.87,49.93,18.42ZM17.36,36.91A.76.76,0,0,0,18,38c.64,0,1.27,0,1.91,0-1.93,1.85-4,3.51-6,5.23q.81-1.62,1.67-3.21a.76.76,0,0,0-.65-1.13l-2.49,0c.83-1.68,1.65-3.35,2.4-5.07q2.09.19,4.21.29C18.47,35,17.91,36,17.36,36.91Zm13,0A.76.76,0,0,0,31,38c.64,0,1.27,0,1.91,0-1.93,1.85-4,3.51-6,5.23q.81-1.62,1.67-3.21a.76.76,0,0,0-.65-1.13H25.39c.75-1.5,1.51-3,2.18-4.53a.71.71,0,0,0,0-.07H29.4l2.52,0C31.4,35.14,30.86,36,30.33,36.91Zm13,0A.76.76,0,0,0,44,38c.64,0,1.27,0,1.91,0-1.93,1.85-4,3.51-6,5.23q.81-1.62,1.67-3.21a.76.76,0,0,0-.65-1.13H38.37c.76-1.53,1.54-3,2.22-4.62a.74.74,0,0,0,0-.1l2.67-.07,1.73,0C44.44,35,43.87,36,43.31,36.91Zm12-7.26c-2.87,3.14-7.21,2.75-11.08,2.9-4.95.19-9.9.13-14.86.22-3.23,0-6.45-.19-9.67-.35-3.39-.17-7,0-10.27-.87C5.27,30.44,1,27.68,1.82,22.78,2.19,20.6,2.93,18.65,5,17.51c2.67-1.49,5.85-1.64,8.23.57a.75.75,0,0,0,1.18-.91C10.59,9.55,18.57,2,25.77,1.52,32.33,1.1,39,5.22,38.69,12.38a.76.76,0,0,0,1.28.53c4.49-4,11.32,1.09,7.92,6.31a.76.76,0,0,0,.85,1.1c2.59-1,5.49-.75,7.38,1.54S57,27.79,55.34,29.65Z"/><path class="cls-1" d="M17.95,8.52a14,14,0,0,0-1.53,4.26c-.17.94,1.27,1.35,1.45.4a12.72,12.72,0,0,1,1.38-3.9C19.71,8.43,18.42,7.67,17.95,8.52Z"/><path class="cls-1" d="M20.69,9.89a.75.75,0,0,0-1,.27,18.62,18.62,0,0,0-.89,2.54.75.75,0,0,0,1.45.4A16,16,0,0,1,21,10.92.78.78,0,0,0,20.69,9.89Z"/></g></g></svg>