<?xml version="1.0" ?><svg viewBox="0 0 58.45 57.37" xmlns="http://www.w3.org/2000/svg"><defs><style>.cls-1{fill:#4d4d4d;}</style></defs><title/><g data-name="Layer 2" id="Layer_2"><g id="icon"><path class="cls-1" d="M49.93,28.11a6.48,6.48,0,0,0-.39-5,9.91,9.91,0,0,0,7.14-6.29.62.62,0,0,0,.05-.14l0-.07s0,0,0,0,0,0,0-.07a.67.67,0,0,0-.33-.68.71.71,0,0,0-.47-.12h-.13c-4.7,1-10,.29-11.84-4.79a12.68,12.68,0,0,1,.81-9.81.68.68,0,0,0,0-.64A.59.59,0,0,0,44.15,0L44,0l-.11,0c-6,.78-9.71,5.7-10.14,11.39A15.86,15.86,0,0,0,24,9.9c-7,1.16-13.44,8.3-11.76,15.44C5.92,22.28-2.25,29.2.58,36.44c1.66,4.24,6.87,6.16,11,6.71A114.86,114.86,0,0,0,26.34,44c-.73,1.6-1.51,3.17-2.28,4.75a.76.76,0,0,0,.65,1.13c.7,0,1.41,0,2.11,0-.84,1.6-1.65,3.21-2.39,4.86a.75.75,0,0,0,1.18.91c3-2.83,6.33-5.18,9.19-8.17a.76.76,0,0,0-.53-1.28l-2.06,0c.46-.77.92-1.53,1.36-2.3,3.24,0,6.47,0,9.71-.13,3.91-.14,8.58.32,11.85-2.21C61.72,36.46,57.75,26.57,49.93,28.11ZM42.85,1.75c-1.38,3.44-1.41,8,.37,11.1,2.5,4.35,7.08,5.26,11.62,4.58a8.82,8.82,0,0,1-6.17,4.4A7.14,7.14,0,0,0,47.8,21a6,6,0,0,0-7.64-.37,11,11,0,0,0-4.89-8.28C35.34,7.52,38.08,3,42.85,1.75ZM30.23,46.63a.76.76,0,0,0,.65,1.13c.52,0,1,0,1.56,0-1.64,1.55-3.38,3-5.09,4.41q.66-1.31,1.36-2.61a.76.76,0,0,0-.65-1.13H25.9c.72-1.46,1.44-2.92,2.09-4.41H29.4l2.42,0C31.29,44.84,30.75,45.73,30.23,46.63Zm25.11-7.28c-2.87,3.14-7.21,2.75-11.08,2.9-4.95.19-9.9.13-14.86.22-3.23,0-6.45-.19-9.67-.35-3.39-.17-7,0-10.27-.87C5.27,40.13,1,37.37,1.82,32.47,2.19,30.29,2.93,28.34,5,27.2c2.67-1.49,5.85-1.64,8.23.57a.75.75,0,0,0,1.18-.91c-3.78-7.63,4.2-15.2,11.4-15.66,6.56-.42,13.2,3.7,12.93,10.86A.76.76,0,0,0,40,22.6c4.49-4,11.32,1.09,7.92,6.31a.76.76,0,0,0,.85,1.1c2.59-1,5.49-.75,7.38,1.54S57,37.48,55.34,39.35Z"/><path class="cls-1" d="M17.95,18.21a14,14,0,0,0-1.53,4.26c-.17.94,1.27,1.35,1.45.4A12.72,12.72,0,0,1,19.25,19C19.71,18.12,18.42,17.37,17.95,18.21Z"/><path class="cls-1" d="M20.69,19.59a.75.75,0,0,0-1,.27,18.61,18.61,0,0,0-.89,2.54.75.75,0,0,0,1.45.4A16,16,0,0,1,21,20.61.78.78,0,0,0,20.69,19.59Z"/><path class="cls-1" d="M21.15,45.25l0-.11a.59.59,0,0,0-.67-.53.71.71,0,0,0-.58.2c-1,.89-2.58,2.12-2.62,3.55a1.93,1.93,0,0,0,2.09,2.16c2.53-.25,2.11-3.31,1.82-5.16A.64.64,0,0,0,21.15,45.25Zm-1.4,3.49c-.11.17-.59.44-.78.31s-.16-.81,0-1a4.58,4.58,0,0,1,.88-1.11c0,.1,0,.19,0,.29A3.16,3.16,0,0,1,19.75,48.73Z"/><path class="cls-1" d="M16.19,52.09l0-.11a.59.59,0,0,0-.67-.53.71.71,0,0,0-.58.2c-1,.89-2.58,2.12-2.62,3.55a1.93,1.93,0,0,0,2.09,2.16c2.53-.25,2.11-3.31,1.82-5.16A.64.64,0,0,0,16.19,52.09Zm-1.4,3.49c-.11.17-.59.44-.78.31s-.16-.81,0-1a4.57,4.57,0,0,1,.88-1.11c0,.1,0,.19,0,.29A3.16,3.16,0,0,1,14.79,55.57Z"/><path class="cls-1" d="M14.42,45.35a.63.63,0,0,0,0-.11l0-.11a.59.59,0,0,0-.67-.53.71.71,0,0,0-.58.2c-1,.89-2.58,2.12-2.62,3.55a1.93,1.93,0,0,0,2.09,2.16C15.13,50.26,14.71,47.2,14.42,45.35ZM12.22,49c-.34-.21-.16-.81,0-1a4.58,4.58,0,0,1,.88-1.11c0,.1,0,.19,0,.29A3.16,3.16,0,0,1,13,48.73C12.9,48.9,12.41,49.17,12.22,49Z"/><path class="cls-1" d="M48,45.25l0-.11a.59.59,0,0,0-.67-.53.71.71,0,0,0-.58.2c-1,.89-2.58,2.12-2.62,3.55a1.93,1.93,0,0,0,2.09,2.16c2.53-.25,2.11-3.31,1.82-5.16A.63.63,0,0,0,48,45.25Zm-1.4,3.49c-.11.17-.59.44-.78.31s-.16-.81,0-1a4.58,4.58,0,0,1,.88-1.11c0,.1,0,.19,0,.29A3.16,3.16,0,0,1,46.57,48.73Z"/><path class="cls-1" d="M43,52.09,43,52a.59.59,0,0,0-.67-.53.71.71,0,0,0-.58.2c-1,.89-2.58,2.12-2.62,3.55a1.93,1.93,0,0,0,2.09,2.16C43.73,57.1,43.31,54,43,52.2A.63.63,0,0,0,43,52.09Zm-1.4,3.49c-.11.17-.59.44-.78.31s-.16-.81,0-1a4.58,4.58,0,0,1,.88-1.11c0,.1,0,.19,0,.29A3.16,3.16,0,0,1,41.6,55.57Z"/><path class="cls-1" d="M41.24,45.35a.63.63,0,0,0,0-.11l0-.11a.59.59,0,0,0-.67-.53.71.71,0,0,0-.58.2c-1,.89-2.58,2.12-2.62,3.55a1.93,1.93,0,0,0,2.09,2.16C41.95,50.26,41.53,47.2,41.24,45.35ZM39,49c-.34-.21-.16-.81,0-1a4.58,4.58,0,0,1,.88-1.11c0,.1,0,.19,0,.29a3.16,3.16,0,0,1-.08,1.55C39.71,48.9,39.23,49.17,39,49Z"/></g></g></svg>