<?xml version="1.0" ?><svg viewBox="0 0 54.85 58.57" xmlns="http://www.w3.org/2000/svg"><defs><style>.cls-1{fill:#4d4d4d;}</style></defs><title/><g data-name="Layer 2" id="Layer_2"><g id="icon"><path class="cls-1" d="M18.3,46.45l0-.11a.59.59,0,0,0-.67-.53A.71.71,0,0,0,17,46c-1,.89-2.58,2.12-2.62,3.55a1.93,1.93,0,0,0,2.09,2.16c2.53-.25,2.11-3.31,1.82-5.16A.64.64,0,0,0,18.3,46.45Zm-1.4,3.48c-.11.17-.59.44-.78.31s-.16-.81,0-1A4.58,4.58,0,0,1,17,48.1c0,.1,0,.19,0,.29A3.16,3.16,0,0,1,16.9,49.94Z"/><path class="cls-1" d="M13.34,53.29l0-.11a.59.59,0,0,0-.67-.53.71.71,0,0,0-.58.2c-1,.89-2.58,2.12-2.62,3.55a1.93,1.93,0,0,0,2.09,2.16c2.53-.25,2.11-3.31,1.82-5.16A.64.64,0,0,0,13.34,53.29Zm-1.4,3.49c-.11.17-.59.44-.78.31s-.16-.81,0-1A4.57,4.57,0,0,1,12,54.94c0,.1,0,.19,0,.29A3.17,3.17,0,0,1,11.94,56.78Z"/><path class="cls-1" d="M11.57,46.56a.64.64,0,0,0,0-.11l0-.11a.59.59,0,0,0-.67-.53.71.71,0,0,0-.58.2c-1,.89-2.58,2.12-2.62,3.55a1.93,1.93,0,0,0,2.09,2.16C12.28,51.47,11.86,48.41,11.57,46.56Zm-2.2,3.69c-.34-.21-.16-.81,0-1a4.58,4.58,0,0,1,.88-1.11c0,.1,0,.19,0,.29a3.16,3.16,0,0,1-.08,1.55C10,50.11,9.56,50.37,9.37,50.25Z"/><path class="cls-1" d="M45.12,46.45l0-.11a.59.59,0,0,0-.67-.53.71.71,0,0,0-.58.2c-1,.89-2.58,2.12-2.62,3.55a1.93,1.93,0,0,0,2.09,2.16c2.53-.25,2.11-3.31,1.82-5.16A.64.64,0,0,0,45.12,46.45Zm-1.4,3.48c-.11.17-.59.44-.78.31s-.16-.81,0-1a4.58,4.58,0,0,1,.88-1.11c0,.1,0,.19,0,.29A3.16,3.16,0,0,1,43.72,49.94Z"/><path class="cls-1" d="M40.16,53.29l0-.11a.59.59,0,0,0-.67-.53.71.71,0,0,0-.58.2c-1,.89-2.58,2.12-2.62,3.55a1.93,1.93,0,0,0,2.09,2.16c2.53-.25,2.11-3.31,1.82-5.16A.63.63,0,0,0,40.16,53.29Zm-1.4,3.49c-.11.17-.59.44-.78.31s-.16-.81,0-1a4.57,4.57,0,0,1,.88-1.11c0,.1,0,.19,0,.29A3.16,3.16,0,0,1,38.75,56.78Z"/><path class="cls-1" d="M38.39,46.56a.62.62,0,0,0,0-.11l0-.11a.59.59,0,0,0-.67-.53.71.71,0,0,0-.58.2c-1,.89-2.58,2.12-2.62,3.55a1.93,1.93,0,0,0,2.09,2.16C39.1,51.47,38.68,48.41,38.39,46.56Zm-2.2,3.69c-.34-.21-.16-.81,0-1A4.58,4.58,0,0,1,37,48.1c0,.1,0,.19,0,.29A3.16,3.16,0,0,1,37,49.94C36.86,50.11,36.38,50.37,36.18,50.25Z"/><path class="cls-1" d="M34.13,4c.18.95,1.63.55,1.45-.4s-.41-2-.64-3S33.27,0,33.49.94,33.94,2.94,34.13,4Z"/><path class="cls-1" d="M45.15,5.88a15.22,15.22,0,0,1,1.57-2.35.77.77,0,0,0,0-1.06.75.75,0,0,0-1.06,0,17.25,17.25,0,0,0-1.81,2.65C43.39,6,44.69,6.73,45.15,5.88Z"/><path class="cls-1" d="M50.69,14.21A8.94,8.94,0,0,1,53,13.67c1-.08,1-1.58,0-1.5a10.42,10.42,0,0,0-2.71.59C49.39,13.09,49.78,14.54,50.69,14.21Z"/><path class="cls-1" d="M48.13,24a25.81,25.81,0,0,1,2.2,1.36c.8.55,1.55-.75.76-1.3a25.86,25.86,0,0,0-2.2-1.36C48,22.29,47.28,23.58,48.13,24Z"/><path class="cls-1" d="M23.85,8.19q1,.65,2.05,1.28a.75.75,0,0,0,.76-1.3q-1-.63-2.05-1.28C23.79,6.38,23,7.67,23.85,8.19Z"/><path class="cls-1" d="M46.83,29.9a6.19,6.19,0,0,0-1.07-5.72,11.55,11.55,0,0,0-2.6-17.65c-6-3.52-14.42-.25-16.58,6.21a15,15,0,0,0-3.68,0c-6.83.94-13,7.63-11.47,14.5C5.64,24.53-1.72,30.56.36,37.32,1.55,41.18,6,43.22,9.64,43.91a75.69,75.69,0,0,0,14,1c-.77,1.7-1.61,3.37-2.42,5.06a.76.76,0,0,0,.65,1.13c.7,0,1.41,0,2.11,0-.84,1.6-1.65,3.21-2.39,4.86a.75.75,0,0,0,1.18.91c3-2.83,6.33-5.18,9.19-8.17a.76.76,0,0,0-.53-1.28l-2.06,0c.49-.82,1-1.64,1.46-2.47a.72.72,0,0,0,0-.14c3.43,0,6.86,0,10.29-.15,3.72-.15,8,.25,11-2.4C57.81,37.21,53.88,28.58,46.83,29.9ZM42.4,7.83c5.19,3,6.35,10.83,2.29,15.3a5.73,5.73,0,0,0-7-.28C37.18,17.55,33,14,28.08,13,30.08,7.58,37.3,4.84,42.4,7.83Zm-15,40A.76.76,0,0,0,28,49c.52,0,1,0,1.56,0-1.64,1.55-3.38,3-5.09,4.41q.66-1.31,1.36-2.61a.76.76,0,0,0-.65-1.13H23c.77-1.56,1.54-3.12,2.23-4.72l2.27,0,1.6,0C28.56,45.84,28,46.83,27.38,47.83Zm24.44-7.38C49.27,43.4,45.25,43,41.75,43.14c-4.73.18-9.46.14-14.2.22-2.9,0-5.78-.16-8.68-.3-3.49-.17-7.18,0-10.56-1C4.38,40.88.84,38.11,1.85,33.59S8.37,26,12.33,29.68a.75.75,0,0,0,1.18-.91c-3.45-7.19,3.95-14.22,10.72-14.61,6.13-.36,12.2,3.51,12,10.14a.76.76,0,0,0,1.28.53c4.29-3.77,10.42,1.13,7.35,5.85a.76.76,0,0,0,.85,1.1C51.42,29.63,56,35.65,51.82,40.45Z"/><path class="cls-1" d="M16.78,20.66a13.15,13.15,0,0,0-1.44,4c-.17.94,1.27,1.35,1.45.4a11.88,11.88,0,0,1,1.29-3.65C18.54,20.57,17.25,19.81,16.78,20.66Z"/><path class="cls-1" d="M19.42,21.92a.75.75,0,0,0-1,.27,17.63,17.63,0,0,0-.84,2.39A.75.75,0,0,0,19,25a15,15,0,0,1,.69-2A.78.78,0,0,0,19.42,21.92Z"/></g></g></svg>