<?xml version="1.0" ?><svg viewBox="0 0 54.85 58.42" xmlns="http://www.w3.org/2000/svg"><defs><style>.cls-1{fill:#4d4d4d;}</style></defs><title/><g data-name="Layer 2" id="Layer_2"><g id="icon"><path class="cls-1" d="M34.13,4c.18.95,1.63.55,1.45-.4s-.41-2-.64-3S33.27,0,33.49.94,33.94,2.94,34.13,4Z"/><path class="cls-1" d="M45.15,5.88a15.22,15.22,0,0,1,1.57-2.35.77.77,0,0,0,0-1.06.75.75,0,0,0-1.06,0,17.25,17.25,0,0,0-1.81,2.65C43.39,6,44.69,6.73,45.15,5.88Z"/><path class="cls-1" d="M50.69,14.21A8.94,8.94,0,0,1,53,13.67c1-.08,1-1.58,0-1.5a10.42,10.42,0,0,0-2.71.59C49.39,13.09,49.78,14.54,50.69,14.21Z"/><path class="cls-1" d="M48.13,24a25.81,25.81,0,0,1,2.2,1.36c.8.55,1.55-.75.76-1.3a25.83,25.83,0,0,0-2.2-1.36C48,22.29,47.28,23.58,48.13,24Z"/><path class="cls-1" d="M23.85,8.19q1,.65,2.05,1.28a.75.75,0,0,0,.76-1.3q-1-.63-2.05-1.28C23.79,6.38,23,7.67,23.85,8.19Z"/><path class="cls-1" d="M46.83,29.9a6.19,6.19,0,0,0-1.07-5.72,11.55,11.55,0,0,0-2.6-17.65c-6-3.52-14.42-.25-16.58,6.21a15,15,0,0,0-3.68,0c-6.83.94-13,7.63-11.47,14.5C5.64,24.53-1.72,30.56.36,37.32,1.55,41.18,6,43.22,9.64,43.91a70.83,70.83,0,0,0,12.71,1c-.85,1.85-1.77,3.67-2.66,5.5a.76.76,0,0,0,.65,1.13c.87,0,1.73,0,2.6,0-1,1.89-2,3.79-2.82,5.74a.75.75,0,0,0,1.18.91c3.43-3.24,7.25-5.93,10.53-9.36a.76.76,0,0,0-.53-1.28l-2.56,0c.54-.91,1.09-1.82,1.62-2.74,3.6,0,7.2,0,10.8-.16s8,.25,11-2.4C57.81,37.21,53.88,28.58,46.83,29.9ZM42.4,7.83c5.19,3,6.35,10.83,2.29,15.3a5.73,5.73,0,0,0-7-.28C37.18,17.55,33,14,28.08,13,30.08,7.58,37.3,4.84,42.4,7.83ZM26.76,48a.76.76,0,0,0,.65,1.13c.69,0,1.38,0,2.06,0-2.07,2-4.29,3.75-6.46,5.6q.87-1.76,1.81-3.48A.76.76,0,0,0,24.17,50l-2.64,0c.84-1.71,1.69-3.41,2.46-5.15l3.57,0h1.06C28,45.89,27.37,46.92,26.76,48Zm25.06-7.52C49.27,43.4,45.25,43,41.75,43.14c-4.73.18-9.46.14-14.2.22-1.33,0-2.65,0-4-.08h0c-1.56-.06-3.11-.15-4.67-.22-3.49-.17-7.18,0-10.56-1C4.38,40.88.84,38.11,1.85,33.59S8.37,26,12.33,29.68a.75.75,0,0,0,1.18-.91c-3.45-7.19,3.95-14.22,10.72-14.61,6.13-.36,12.2,3.51,12,10.14a.76.76,0,0,0,1.28.53c4.29-3.77,10.42,1.13,7.35,5.85a.76.76,0,0,0,.85,1.1C51.42,29.63,56,35.65,51.82,40.45Z"/><path class="cls-1" d="M16.78,20.66a13.15,13.15,0,0,0-1.44,4c-.17.94,1.27,1.35,1.45.4a11.88,11.88,0,0,1,1.29-3.65C18.54,20.57,17.25,19.81,16.78,20.66Z"/><path class="cls-1" d="M19.42,21.92a.75.75,0,0,0-1,.27,17.64,17.64,0,0,0-.84,2.39A.75.75,0,0,0,19,25a15,15,0,0,1,.69-2A.78.78,0,0,0,19.42,21.92Z"/></g></g></svg>