<?xml version="1.0" ?><svg viewBox="0 0 58.79 48.29" xmlns="http://www.w3.org/2000/svg"><defs><style>.cls-1{fill:#4d4d4d;}</style></defs><title/><g data-name="Layer 2" id="Layer_2"><g id="icon"><path class="cls-1" d="M30,6.33q0-2.8,0-5.61a.75.75,0,0,0-1.5,0q.06,2.8,0,5.61A.75.75,0,0,0,30,6.33Z"/><path class="cls-1" d="M46.25,13.56a29.25,29.25,0,0,1,3.93-3.82c.75-.6-.31-1.66-1.06-1.06a29.24,29.24,0,0,0-3.93,3.82C44.56,13.23,45.62,14.3,46.25,13.56Z"/><path class="cls-1" d="M58.07,28.64a18.38,18.38,0,0,0-4.88.09c-1,.14-.55,1.59.4,1.45a17,17,0,0,1,4.48,0C59,30.25,59,28.75,58.07,28.64Z"/><path class="cls-1" d="M5.54,28.6q-2.41-.15-4.82-.08a.75.75,0,0,0,0,1.5q2.41-.07,4.82.08C6.51,30.16,6.5,28.66,5.54,28.6Z"/><path class="cls-1" d="M11.53,12.7c.71.66,1.77-.4,1.06-1.06q-1.61-1.5-3.18-3C8.73,7.91,7.67,9,8.36,9.65Q9.93,11.2,11.53,12.7Z"/><path class="cls-1" d="M17.81,18.81a14,14,0,0,0-1.53,4.26c-.17.94,1.27,1.35,1.45.4a12.72,12.72,0,0,1,1.38-3.9C19.57,18.72,18.28,18,17.81,18.81Z"/><path class="cls-1" d="M20.56,20.18a.75.75,0,0,0-1,.27A18.61,18.61,0,0,0,18.64,23a.75.75,0,0,0,1.45.4,16,16,0,0,1,.74-2.18A.78.78,0,0,0,20.56,20.18Z"/><path class="cls-1" d="M54.73,38.76c-2.64-.09-5.28-.12-7.91-.13,2.65-6.52,3.86-14.62-1.06-20.35-4.17-4.86-9.33-8.36-16-8.29-6.22.07-13.57,3.09-17.3,8.23C8.24,24.08,8,32.37,11.18,38.68c-1.72-.07-3.44-.16-5.16-.29-1-.07-1,1.43,0,1.5,16.2,1.17,32.49-.16,48.72.37C55.7,40.29,55.7,38.79,54.73,38.76Zm-41.93,0a.74.74,0,0,0-.09-.35c-3.32-6.08-3-14.69,1.65-20.13C18.16,13.8,25.2,11.19,31,11.53c5.6.33,9.79,3.34,13.38,7.41,4.9,5.56,3.53,13.3.91,19.6a.65.65,0,0,0,0,.09C34.42,38.65,23.6,39.12,12.8,38.75Z"/><path class="cls-1" d="M48,42.34c-12.2,1.16-24.8.61-37,.31a.75.75,0,0,0,0,1.5c12.24.3,24.84.85,37-.31C49,43.75,49,42.25,48,42.34Z"/><path class="cls-1" d="M40.48,46.31c-7.21,1.4-14.5-.59-21.75.3-.95.12-1,1.62,0,1.5,7.39-.91,14.79,1.08,22.15-.35C41.83,47.57,41.42,46.13,40.48,46.31Z"/><path class="cls-1" d="M29.75,25.61a.75.75,0,0,0-1.06,0,31,31,0,0,0-2.35,3.15c-.53.81.77,1.57,1.3.76.27-.41.55-.81.83-1.2l0,7a.75.75,0,0,0,1.5,0l0-7.25c.47.49.93,1,1.36,1.52.6.76,1.65-.31,1.06-1.06C31.57,27.51,30.58,26.63,29.75,25.61Z"/></g></g></svg>