<?xml version="1.0" ?><svg viewBox="0 0 52.04 46.35" xmlns="http://www.w3.org/2000/svg"><defs><style>.cls-1{fill:#4d4d4d;}</style></defs><title/><g data-name="Layer 2" id="Layer_2"><g id="icon"><path class="cls-1" d="M25.39,5.43q0-2.36,0-4.71a.75.75,0,0,0-1.5,0q.05,2.36,0,4.71A.75.75,0,0,0,25.39,5.43Z"/><path class="cls-1" d="M39,11.59a24.57,24.57,0,0,1,3.31-3.21c.75-.61-.31-1.66-1.06-1.06A24.57,24.57,0,0,0,38,10.53C37.36,11.26,38.42,12.33,39,11.59Z"/><path class="cls-1" d="M45.16,25.58a14.15,14.15,0,0,1,3.73,0c1,.11.95-1.39,0-1.5a15.55,15.55,0,0,0-4.13.08C43.81,24.28,44.22,25.72,45.16,25.58Z"/><path class="cls-1" d="M9.89,38.74Q8.54,40,7.15,41.22c-.73.63.33,1.69,1.06,1.06q1.4-1.21,2.74-2.48C11.65,39.14,10.59,38.08,9.89,38.74Z"/><path class="cls-1" d="M4.77,24q-2-.13-4-.07a.75.75,0,0,0,0,1.5q2-.06,4,.07C5.74,25.58,5.73,24.08,4.77,24Z"/><path class="cls-1" d="M9.72,10.87c.71.66,1.77-.4,1.06-1.06Q9.43,8.54,8.11,7.25C7.42,6.57,6.36,7.63,7,8.31Q8.37,9.61,9.72,10.87Z"/><path class="cls-1" d="M15,15.85a11.86,11.86,0,0,0-1.3,3.61c-.17.94,1.27,1.35,1.45.4a10.59,10.59,0,0,1,1.14-3.25C16.73,15.76,15.44,15,15,15.85Z"/><path class="cls-1" d="M17.44,17a.75.75,0,0,0-1,.27,16.18,16.18,0,0,0-.76,2.16.75.75,0,0,0,1.45.4,13.48,13.48,0,0,1,.61-1.8A.78.78,0,0,0,17.44,17Z"/><path class="cls-1" d="M47.06,36.75c.75-4.44-1.3-9-5.61-10.47.75-6.32-2-11.49-7.29-15.12s-11.9-3.28-17.55-.57A16.06,16.06,0,0,0,7.67,27.64C8.62,34.34,14,39,20.22,40.76c.74,6,9.86,5.54,14.37,5.38s13.54,1.57,16.63-2.85C53.55,40,50.47,35.82,47.06,36.75ZM9.33,28.43a14.72,14.72,0,0,1,8-16.55c4.82-2.32,10.35-2.83,15.1,0,5,2.94,8.17,8.26,7.54,14.06a9.37,9.37,0,0,0-11.05,8.18,6,6,0,0,0-8.72,5.11C15,37.62,10.56,33.93,9.33,28.43ZM46.8,44.21a21.25,21.25,0,0,1-4.23.35c-2.66.06-5.32,0-8,.08-3.33.12-7.28.76-10.24-1-6-3.67,0-11.66,4.78-7.6.45.39,1.32.17,1.28-.53a7.8,7.8,0,0,1,9.53-8c4.84.94,6.77,6,5.3,10.48-.19.59.57,1.24,1.1.85,2-1.49,5.25,1.24,3.13,4.26A5.42,5.42,0,0,1,46.8,44.21Z"/></g></g></svg>