<?xml version="1.0" ?><svg viewBox="0 0 58.24 30.98" xmlns="http://www.w3.org/2000/svg"><defs><style>.cls-1{fill:#4d4d4d;}</style></defs><title/><g data-name="Layer 2" id="Layer_2"><g id="icon"><path class="cls-1" d="M55.18,24.4a4.3,4.3,0,0,0-1.5-4.69s0,0,0,0C52.07,8.61,42.23.34,31.2,0,19.71-.33,9.37,6.57,6.77,18A6.16,6.16,0,0,0,.52,22.18c-1.07,2.62-.56,6,2,7.51,3.38,2,8.9,1.07,12.65,1s6.79-1.08,5.26-5.32A4.54,4.54,0,0,0,17,22.09c.93-6.49,7.41-12.28,13.84-12.15,6.78.14,12,6.08,12.82,12.58a3.65,3.65,0,0,0-4.29,3.38c-.36,4.6,5.3,4.49,8.46,4.37,2.48-.06,9.25.83,10.28-2.4C58.78,25.72,57,24.37,55.18,24.4ZM31.2,1.51A22.1,22.1,0,0,1,52,18.76a7,7,0,0,0-3.08-.38C46.13,9.58,38.78,4.63,29.6,4.5,21.34,4.39,12.8,11.81,11,19.79a7.43,7.43,0,0,0-2.75-1.51C10.76,7.57,20.4,1.2,31.2,1.51ZM19.4,27.44c-.45,1.75-2.87,1.67-4.2,1.73-2.85.07-6.1.48-8.9-.05Q.76,28.71,1.63,23.6a5.56,5.56,0,0,1,3.78-4c3.39-1,6.06,1.9,6.69,4.94a.76.76,0,0,0,1.25.33C15.2,23.17,20.2,24.34,19.4,27.44Zm11.41-19c-7.37-.15-14.4,6.37-15.34,13.68a6.09,6.09,0,0,0-2.24.92,7.69,7.69,0,0,0-1-1.91.66.66,0,0,0,0-.07C13.49,13.43,21.69,5.87,29.6,6c8.44.14,15.24,4.62,17.84,12.72A4.67,4.67,0,0,0,44.86,21C43.35,14.28,38,8.58,30.82,8.44Zm24.05,20a15.59,15.59,0,0,1-2.54.29c-1.5,0-3,0-4.52,0a21.5,21.5,0,0,1-4.51-.14,2.68,2.68,0,0,1-2.51-2.15q-.06-2.78,3.85-1.93a.75.75,0,0,0,1.13-.65c-.07-2.22,2.5-5.47,5.21-4.19,2.07,1,3.49,3.16,2.36,5.36a.76.76,0,0,0,1,1C56.22,25.09,57.38,27.86,54.87,28.44Z"/></g></g></svg>